<?xml version="1.0" encoding="UTF-8"?>
<svg xmlns="http://www.w3.org/2000/svg" xmlns:xlink="http://www.w3.org/1999/xlink" viewBox="0 0 334.72 158.07" version="1.1">
<g id="surface1">
<path style=" stroke:none;fill-rule:nonzero;fill:rgb(100%,100%,100%);fill-opacity:1;" d="M 40.15625 81.222656 C 43.636719 81.222656 46.457031 78.402344 46.457031 74.921875 L 46.457031 56.164063 L 55.128906 56.164063 L 55.128906 74.921875 C 55.128906 78.402344 57.949219 81.222656 61.429688 81.222656 C 64.90625 81.222656 67.726563 78.402344 67.726563 74.921875 L 67.726563 18.898438 C 67.726563 15.417969 64.90625 12.597656 61.429688 12.597656 C 57.949219 12.597656 55.128906 15.417969 55.128906 18.898438 L 55.128906 43.566406 L 46.457031 43.566406 L 46.457031 31.023438 C 46.457031 27.542969 43.636719 24.722656 40.15625 24.722656 C 36.675781 24.722656 33.855469 27.542969 33.855469 31.023438 L 33.855469 74.921875 C 33.855469 78.402344 36.675781 81.222656 40.15625 81.222656 "/>
<path style=" stroke:none;fill-rule:nonzero;fill:rgb(100%,100%,100%);fill-opacity:1;" d="M 82.699219 92.023438 C 86.179688 92.023438 89 89.203125 89 85.722656 L 89 47.652344 C 89 44.171875 86.179688 41.351563 82.699219 41.351563 C 79.21875 41.351563 76.398438 44.171875 76.398438 47.652344 L 76.398438 85.722656 C 76.398438 89.203125 79.21875 92.023438 82.699219 92.023438 "/>
<path style=" stroke:none;fill-rule:nonzero;fill:rgb(100%,100%,100%);fill-opacity:1;" d="M 82.699219 39.101563 C 86.179688 39.101563 89 36.28125 89 32.800781 L 89 31.023438 C 89 27.542969 86.179688 24.722656 82.699219 24.722656 C 79.21875 24.722656 76.398438 27.542969 76.398438 31.023438 L 76.398438 32.800781 C 76.398438 36.28125 79.21875 39.101563 82.699219 39.101563 "/>
<path style=" stroke:none;fill-rule:nonzero;fill:rgb(100%,100%,100%);fill-opacity:1;" d="M 110.296875 74.378906 C 107.078125 73.054688 103.398438 74.59375 102.074219 77.8125 C 101.972656 78.0625 91.742188 102.898438 84.863281 114.441406 C 79.851563 122.847656 70.839844 132.871094 56.363281 132.871094 C 48.082031 132.871094 40.304688 129.632813 34.464844 123.753906 C 28.625 117.875 25.328125 110.003906 25.183594 101.585938 C 24.941406 87.335938 25.183594 48.085938 25.1875 47.691406 C 25.207031 44.210938 22.40625 41.375 18.925781 41.351563 C 18.910156 41.351563 18.898438 41.351563 18.886719 41.351563 C 15.425781 41.351563 12.609375 44.148438 12.585938 47.613281 C 12.585938 48.007813 12.34375 87.40625 12.585938 101.800781 C 12.785156 113.484375 17.382813 124.433594 25.527344 132.632813 C 33.75 140.910156 44.699219 145.46875 56.363281 145.46875 C 64.792969 145.46875 72.613281 143.097656 79.601563 138.417969 C 85.824219 134.253906 91.238281 128.355469 95.683594 120.890625 C 103.035156 108.558594 113.296875 83.65625 113.730469 82.601563 C 115.050781 79.382813 113.515625 75.699219 110.296875 74.378906 "/>
<path style=" stroke:none;fill-rule:nonzero;fill:rgb(100%,100%,100%);fill-opacity:1;" d="M 275.726563 100.6875 C 275.726563 107.722656 280.507813 112.207031 286.886719 112.207031 C 293.261719 112.207031 298.042969 107.722656 298.042969 100.6875 C 298.042969 93.65625 293.261719 89.171875 286.886719 89.171875 C 280.507813 89.171875 275.726563 93.65625 275.726563 100.6875 Z M 291.339844 100.6875 C 291.339844 103.589844 289.253906 105.304688 286.886719 105.304688 C 284.515625 105.304688 282.429688 103.589844 282.429688 100.6875 C 282.429688 97.785156 284.515625 96.074219 286.886719 96.074219 C 289.253906 96.074219 291.339844 97.785156 291.339844 100.6875 "/>
<path style=" stroke:none;fill-rule:nonzero;fill:rgb(100%,100%,100%);fill-opacity:1;" d="M 133.832031 43.644531 C 133.832031 43.363281 133.601563 43.132813 133.320313 43.132813 L 127.3125 43.132813 C 127.03125 43.132813 126.804688 43.363281 126.804688 43.644531 L 126.804688 73.394531 C 126.804688 73.675781 127.03125 73.90625 127.3125 73.90625 L 133.320313 73.90625 C 133.601563 73.90625 133.832031 73.675781 133.832031 73.394531 L 133.832031 63.222656 C 133.832031 59.925781 135.605469 58.210938 137.933594 58.210938 C 140.039063 58.210938 141.828125 59.355469 141.828125 62.253906 L 141.828125 73.394531 C 141.828125 73.675781 142.058594 73.902344 142.339844 73.902344 L 148.433594 73.90625 C 148.714844 73.90625 148.945313 73.675781 148.945313 73.394531 L 148.945313 59.839844 C 148.945313 54.429688 146.074219 51.398438 141.242188 51.398438 C 137.859375 51.398438 135.191406 53.066406 133.832031 55.222656 L 133.832031 43.644531 "/>
<path style=" stroke:none;fill-rule:nonzero;fill:rgb(100%,100%,100%);fill-opacity:1;" d="M 174.773438 52.433594 C 174.773438 52.15625 174.542969 51.925781 174.261719 51.925781 L 168.210938 51.925781 C 167.929688 51.925781 167.699219 52.15625 167.699219 52.433594 L 167.699219 62.605469 C 167.699219 65.902344 165.753906 67.617188 163.558594 67.617188 C 161.886719 67.617188 160.335938 66.609375 160.335938 63.707031 L 160.335938 52.433594 C 160.335938 52.15625 160.105469 51.925781 159.828125 51.925781 L 153.640625 51.925781 C 153.363281 51.925781 153.132813 52.15625 153.132813 52.433594 L 153.132813 65.992188 C 153.132813 71.398438 155.898438 74.433594 160.425781 74.433594 C 163.71875 74.433594 166.601563 72.585938 167.964844 70.476563 L 167.964844 73.394531 C 167.964844 73.675781 168.191406 73.90625 168.472656 73.90625 L 174.265625 73.90625 C 174.542969 73.90625 174.773438 73.675781 174.773438 73.394531 L 174.773438 52.433594 "/>
<path style=" stroke:none;fill-rule:nonzero;fill:rgb(100%,100%,100%);fill-opacity:1;" d="M 241.140625 90.207031 C 241.140625 89.929688 240.914063 89.699219 240.640625 89.699219 L 234.707031 89.699219 C 234.433594 89.699219 234.207031 89.929688 234.207031 90.207031 L 234.207031 100.378906 C 234.207031 103.675781 232.613281 105.390625 230.464844 105.390625 C 228.824219 105.390625 227.621094 104.378906 227.621094 101.480469 L 227.621094 90.207031 C 227.621094 89.925781 227.398438 89.699219 227.121094 89.699219 L 221.058594 89.699219 C 220.785156 89.699219 220.5625 89.929688 220.5625 90.207031 L 220.5625 103.765625 C 220.5625 109.171875 223.273438 112.203125 227.707031 112.203125 C 230.9375 112.203125 233.132813 110.359375 234.46875 108.25 L 234.46875 111.167969 C 234.46875 111.449219 234.691406 111.675781 234.964844 111.675781 L 240.640625 111.675781 C 240.914063 111.675781 241.140625 111.449219 241.140625 111.167969 L 241.140625 90.207031 "/>
<path style=" stroke:none;fill-rule:nonzero;fill:rgb(100%,100%,100%);fill-opacity:1;" d="M 209.433594 73.394531 C 209.433594 73.675781 209.660156 73.902344 209.941406 73.902344 L 215.949219 73.90625 C 216.230469 73.90625 216.460938 73.675781 216.460938 73.394531 L 216.460938 60.101563 C 216.460938 54.519531 212.410156 51.398438 207.886719 51.398438 C 204.546875 51.398438 201.484375 53.113281 200.390625 55.355469 C 199.15625 52.628906 196.339844 51.398438 193.394531 51.398438 C 189.839844 51.398438 187.347656 53.15625 186.074219 55.222656 L 186.074219 52.433594 C 186.074219 52.15625 185.84375 51.925781 185.5625 51.925781 L 179.730469 51.925781 C 179.449219 51.925781 179.222656 52.15625 179.222656 52.433594 L 179.222656 73.394531 C 179.222656 73.675781 179.449219 73.902344 179.730469 73.902344 L 185.738281 73.90625 C 186.019531 73.90625 186.246094 73.675781 186.246094 73.394531 L 186.25 63.222656 C 186.25 60.191406 187.726563 58.210938 190.359375 58.210938 C 192.515625 58.210938 194.324219 59.574219 194.324219 62.34375 L 194.324219 73.394531 C 194.324219 73.675781 194.554688 73.90625 194.835938 73.90625 L 200.84375 73.902344 C 201.125 73.902344 201.355469 73.675781 201.355469 73.394531 L 201.355469 63.222656 C 201.355469 60.191406 202.832031 58.210938 205.46875 58.210938 C 207.621094 58.210938 209.433594 59.574219 209.433594 62.34375 L 209.433594 73.394531 "/>
<path style=" stroke:none;fill-rule:nonzero;fill:rgb(100%,100%,100%);fill-opacity:1;" d="M 220.273438 55.652344 C 220.132813 55.871094 220.175781 56.167969 220.382813 56.332031 L 223.96875 59.144531 C 224.1875 59.320313 224.511719 59.28125 224.683594 59.058594 C 225.859375 57.652344 228.097656 57.320313 229.746094 57.320313 C 231.941406 57.320313 233.523438 58.148438 233.523438 59.132813 L 233.523438 59.308594 C 233.523438 59.707031 233.257813 59.925781 232.554688 60.015625 L 226.625 60.542969 C 222.539063 60.894531 219.640625 63.53125 219.640625 67.488281 C 219.640625 71.664063 222.890625 74.34375 227.019531 74.34375 C 230.621094 74.34375 232.554688 72.496094 233.523438 71.003906 L 233.523438 73.394531 C 233.523438 73.675781 233.75 73.90625 234.03125 73.90625 L 240.039063 73.902344 C 240.320313 73.902344 240.550781 73.675781 240.550781 73.394531 L 240.550781 60.804688 C 240.550781 54.167969 237.035156 51.398438 230.445313 51.398438 C 226.113281 51.398438 222.179688 52.648438 220.273438 55.652344 Z M 233.523438 64.304688 L 233.523438 64.734375 C 233.523438 67.152344 231.671875 68.859375 229.066406 68.859375 C 227.3125 68.859375 226.363281 68.101563 226.363281 66.867188 C 226.363281 65.777344 227.21875 65.066406 228.734375 64.875 L 233.523438 64.304688 "/>
<path style=" stroke:none;fill-rule:nonzero;fill:rgb(100%,100%,100%);fill-opacity:1;" d="M 259.285156 73.394531 C 259.285156 73.675781 259.515625 73.902344 259.792969 73.902344 L 265.890625 73.90625 C 266.171875 73.90625 266.398438 73.675781 266.398438 73.394531 L 266.398438 59.839844 C 266.398438 54.429688 263.738281 51.398438 258.90625 51.398438 C 255.480469 51.398438 253.03125 53.242188 251.667969 55.222656 L 251.667969 52.433594 C 251.667969 52.15625 251.4375 51.925781 251.160156 51.925781 L 245.324219 51.925781 C 245.046875 51.925781 244.816406 52.15625 244.816406 52.433594 L 244.816406 73.394531 C 244.816406 73.675781 245.046875 73.90625 245.324219 73.90625 L 251.335938 73.90625 C 251.613281 73.90625 251.84375 73.675781 251.84375 73.394531 L 251.84375 63.222656 C 251.84375 59.925781 253.476563 58.210938 255.804688 58.210938 C 257.914063 58.210938 259.285156 59.355469 259.285156 62.253906 L 259.285156 73.394531 "/>
<path style=" stroke:none;fill-rule:nonzero;fill:rgb(100%,100%,100%);fill-opacity:1;" d="M 315.074219 111.167969 C 315.074219 111.445313 315.300781 111.675781 315.578125 111.675781 L 321.613281 111.675781 C 321.894531 111.675781 322.117188 111.449219 322.117188 111.167969 L 322.117188 97.609375 C 322.117188 92.203125 319.609375 89.171875 314.824219 89.171875 C 311.433594 89.171875 309.324219 91.015625 307.980469 92.996094 L 307.980469 90.207031 C 307.980469 89.929688 307.75 89.699219 307.472656 89.699219 L 301.699219 89.699219 C 301.421875 89.699219 301.195313 89.925781 301.195313 90.207031 L 301.195313 111.167969 C 301.195313 111.449219 301.421875 111.675781 301.699219 111.675781 L 307.648438 111.675781 C 307.925781 111.675781 308.152344 111.449219 308.152344 111.167969 L 308.152344 100.996094 C 308.152344 97.699219 309.574219 95.984375 311.878906 95.984375 C 313.96875 95.984375 315.074219 97.128906 315.074219 100.027344 L 315.074219 111.167969 "/>
<path style=" stroke:none;fill-rule:nonzero;fill:rgb(100%,100%,100%);fill-opacity:1;" d="M 178.0625 111.167969 C 178.0625 111.445313 178.289063 111.675781 178.570313 111.675781 L 184.605469 111.675781 C 184.882813 111.675781 185.109375 111.449219 185.109375 111.167969 L 185.109375 97.609375 C 185.109375 92.203125 182.597656 89.171875 177.816406 89.171875 C 174.421875 89.171875 172.316406 91.015625 170.96875 92.996094 L 170.96875 90.207031 C 170.96875 89.929688 170.742188 89.699219 170.464844 89.699219 L 164.6875 89.699219 C 164.410156 89.699219 164.183594 89.925781 164.183594 90.207031 L 164.183594 111.167969 C 164.183594 111.449219 164.410156 111.675781 164.6875 111.675781 L 170.636719 111.675781 C 170.914063 111.675781 171.140625 111.449219 171.140625 111.167969 L 171.140625 100.996094 C 171.140625 97.699219 172.566406 95.984375 174.871094 95.984375 C 176.957031 95.984375 178.0625 97.128906 178.0625 100.027344 L 178.0625 111.167969 "/>
<path style=" stroke:none;fill-rule:nonzero;fill:rgb(100%,100%,100%);fill-opacity:1;" d="M 277.753906 52.433594 C 277.753906 52.15625 277.523438 51.925781 277.242188 51.925781 L 271.234375 51.925781 C 270.953125 51.925781 270.722656 52.15625 270.722656 52.433594 L 270.722656 73.394531 C 270.722656 73.675781 270.953125 73.902344 271.234375 73.902344 L 277.242188 73.90625 C 277.523438 73.90625 277.753906 73.675781 277.753906 73.394531 Z M 270.109375 45.640625 C 270.109375 48.011719 271.863281 49.773438 274.238281 49.773438 C 276.609375 49.773438 278.367188 48.011719 278.367188 45.640625 C 278.367188 43.265625 276.609375 41.507813 274.238281 41.507813 C 271.863281 41.507813 270.109375 43.265625 270.109375 45.640625 "/>
<path style=" stroke:none;fill-rule:nonzero;fill:rgb(100%,100%,100%);fill-opacity:1;" d="M 160.183594 90.207031 C 160.183594 89.925781 159.953125 89.699219 159.675781 89.699219 L 153.730469 89.699219 C 153.449219 89.699219 153.222656 89.929688 153.222656 90.207031 L 153.222656 111.167969 C 153.222656 111.449219 153.449219 111.675781 153.730469 111.675781 L 159.675781 111.675781 C 159.953125 111.675781 160.183594 111.449219 160.183594 111.167969 Z M 152.613281 83.414063 C 152.613281 85.785156 154.355469 87.542969 156.703125 87.542969 C 159.050781 87.542969 160.789063 85.785156 160.789063 83.414063 C 160.789063 81.039063 159.050781 79.28125 156.703125 79.28125 C 154.355469 79.28125 152.613281 81.039063 152.613281 83.414063 "/>
<path style=" stroke:none;fill-rule:nonzero;fill:rgb(100%,100%,100%);fill-opacity:1;" d="M 216.460938 81.414063 C 216.460938 81.136719 216.230469 80.90625 215.949219 80.90625 L 209.941406 80.90625 C 209.660156 80.90625 209.433594 81.136719 209.433594 81.417969 L 209.433594 111.167969 C 209.433594 111.445313 209.660156 111.675781 209.941406 111.675781 L 215.949219 111.675781 C 216.230469 111.675781 216.460938 111.449219 216.460938 111.167969 L 216.460938 81.414063 "/>
<path style=" stroke:none;fill-rule:nonzero;fill:rgb(100%,100%,100%);fill-opacity:1;" d="M 272.574219 90.207031 C 272.574219 89.925781 272.347656 89.699219 272.070313 89.699219 L 266.121094 89.699219 C 265.84375 89.699219 265.617188 89.929688 265.617188 90.207031 L 265.617188 111.167969 C 265.617188 111.449219 265.84375 111.675781 266.121094 111.675781 L 272.070313 111.675781 C 272.347656 111.675781 272.574219 111.449219 272.574219 111.167969 Z M 265.007813 83.414063 C 265.007813 85.785156 266.746094 87.542969 269.09375 87.542969 C 271.441406 87.542969 273.183594 85.785156 273.183594 83.414063 C 273.183594 81.039063 271.441406 79.28125 269.09375 79.28125 C 266.746094 79.28125 265.007813 81.039063 265.007813 83.414063 "/>
<path style=" stroke:none;fill-rule:nonzero;fill:rgb(100%,100%,100%);fill-opacity:1;" d="M 296.546875 73.472656 C 294.777344 73.894531 292.972656 74.125 291.625 74.125 C 287.449219 74.125 284.902344 72.058594 284.902344 66.828125 L 284.902344 57.726563 L 281.636719 57.726563 C 281.355469 57.726563 281.125 57.496094 281.125 57.21875 L 281.125 52.433594 C 281.125 52.15625 281.355469 51.925781 281.636719 51.925781 L 284.902344 51.925781 L 284.902344 46.546875 C 284.902344 46.265625 285.132813 46.035156 285.414063 46.035156 L 291.421875 46.035156 C 291.703125 46.035156 291.933594 46.265625 291.933594 46.546875 L 291.933594 51.925781 L 296.734375 51.925781 C 297.015625 51.925781 297.246094 52.15625 297.246094 52.433594 L 297.246094 57.21875 C 297.246094 57.496094 297.015625 57.726563 296.734375 57.726563 L 291.933594 57.726563 L 291.933594 65.375 C 291.933594 66.609375 292.679688 66.960938 293.953125 66.960938 C 294.417969 66.960938 294.984375 66.890625 296.355469 66.691406 C 296.378906 66.6875 296.402344 66.6875 296.429688 66.6875 C 296.710938 66.6875 296.941406 66.917969 296.941406 67.195313 L 296.941406 72.976563 C 296.941406 73.21875 296.769531 73.421875 296.546875 73.472656 "/>
<path style=" stroke:none;fill-rule:nonzero;fill:rgb(100%,100%,100%);fill-opacity:1;" d="M 202.898438 97.792969 C 201.960938 96.847656 200.769531 96.070313 199.113281 96.070313 C 196.304688 96.070313 194.445313 97.960938 194.445313 100.6875 C 194.445313 103.414063 196.328125 105.304688 199.113281 105.304688 C 200.765625 105.304688 201.949219 104.523438 202.886719 103.574219 C 202.976563 103.484375 203.097656 103.425781 203.234375 103.421875 C 203.417969 103.421875 203.578125 103.515625 203.671875 103.660156 L 206.695313 108.480469 C 206.742188 108.558594 206.773438 108.652344 206.769531 108.75 C 206.769531 108.890625 206.714844 109.019531 206.621094 109.113281 C 204.800781 110.898438 202.234375 112.203125 198.988281 112.203125 C 192.691406 112.203125 187.730469 107.851563 187.730469 100.6875 C 187.730469 93.523438 192.691406 89.171875 198.988281 89.171875 C 202.234375 89.171875 204.808594 90.464844 206.628906 92.25 C 206.722656 92.34375 206.78125 92.472656 206.78125 92.617188 C 206.78125 92.714844 206.753906 92.808594 206.703125 92.886719 L 203.679688 97.707031 C 203.589844 97.847656 203.429688 97.941406 203.253906 97.941406 C 203.117188 97.941406 202.988281 97.882813 202.898438 97.792969 "/>
<path style=" stroke:none;fill-rule:nonzero;fill:rgb(100%,100%,100%);fill-opacity:1;" d="M 136.78125 105.039063 C 135.695313 105.949219 134.753906 106.320313 133.53125 106.320313 C 131.449219 106.320313 129.691406 104.546875 129.691406 102.445313 C 129.691406 100.683594 130.515625 99.210938 132.074219 98.179688 L 132.113281 98.15625 L 132.140625 98.195313 C 133.679688 100.4375 135.328125 102.839844 136.789063 104.972656 L 136.816406 105.011719 Z M 134.472656 85.28125 C 135.65625 85.28125 136.453125 86.070313 136.453125 87.242188 C 136.453125 88.84375 135.226563 89.59375 134.144531 90.253906 C 134.023438 90.324219 133.90625 90.398438 133.792969 90.46875 L 133.757813 90.492188 L 133.730469 90.457031 C 133.601563 90.300781 132.488281 88.882813 132.488281 87.378906 C 132.488281 86.222656 133.378906 85.28125 134.472656 85.28125 Z M 147.804688 110.90625 L 144.246094 105.734375 L 144.261719 105.703125 C 146.855469 101.75 147.308594 97.9375 147.523438 96.105469 C 147.546875 95.894531 147.570313 95.707031 147.59375 95.546875 C 147.597656 95.515625 147.597656 95.488281 147.597656 95.457031 C 147.589844 95.332031 147.53125 95.21875 147.441406 95.136719 C 147.347656 95.050781 147.226563 95.007813 147.105469 95.015625 L 142.144531 95.015625 C 141.933594 95.03125 141.753906 95.195313 141.722656 95.410156 C 141.722656 95.425781 141.578125 97.808594 140.53125 100.210938 L 140.496094 100.289063 L 136.867188 95.015625 L 137.5 94.59375 C 140.164063 92.542969 141.941406 90.449219 141.941406 86.925781 C 141.941406 84.875 141.226563 82.980469 139.929688 81.582031 C 138.578125 80.128906 136.667969 79.328125 134.550781 79.328125 C 131.523438 79.328125 128.921875 80.859375 127.597656 83.421875 C 126.085938 86.34375 126.519531 90.023438 128.753906 93.265625 L 128.847656 93.402344 L 128.800781 93.429688 C 125.421875 95.433594 123.636719 98.609375 123.636719 102.621094 C 123.636719 105.144531 124.4375 107.464844 125.890625 109.15625 C 127.574219 111.117188 130.085938 112.15625 133.140625 112.15625 C 135.074219 112.15625 137.628906 111.917969 140.222656 110.070313 L 140.261719 110.042969 L 141.226563 111.449219 C 141.3125 111.5625 141.445313 111.628906 141.585938 111.628906 L 147.429688 111.628906 C 147.683594 111.628906 147.886719 111.421875 147.886719 111.167969 C 147.886719 111.074219 147.859375 110.984375 147.804688 110.90625 "/>
<path style=" stroke:none;fill-rule:nonzero;fill:rgb(100%,100%,100%);fill-opacity:1;" d="M 247.359375 104.714844 C 248.820313 105.5 252.320313 106.363281 254.007813 106.269531 C 255.351563 106.195313 255.804688 105.710938 255.800781 105.226563 C 255.796875 104.441406 255.238281 104.21875 251.101563 103.117188 C 248.234375 102.355469 245.332031 100.25 245.332031 96.46875 C 245.332031 91.675781 248.523438 89.171875 254.246094 89.171875 C 257.566406 89.171875 260.101563 90.011719 262.019531 91.230469 C 262.15625 91.320313 262.25 91.484375 262.25 91.667969 C 262.25 91.765625 262.226563 91.855469 262.183594 91.933594 L 259.902344 96.023438 C 259.820313 96.175781 259.664063 96.285156 259.484375 96.292969 C 259.398438 96.296875 259.3125 96.277344 259.242188 96.238281 C 257.777344 95.449219 255.355469 94.960938 253.671875 95.050781 C 252.324219 95.125 251.878906 95.71875 251.878906 96.203125 C 251.878906 96.730469 252.40625 97.246094 256.578125 98.210938 C 260.214844 99.046875 262.347656 101.082031 262.347656 104.863281 C 262.347656 109.648438 259.191406 112.203125 253.183594 112.203125 C 249.445313 112.203125 246.363281 111.34375 244.445313 109.773438 C 244.328125 109.675781 244.253906 109.519531 244.257813 109.34375 C 244.261719 109.25 244.285156 109.164063 244.324219 109.089844 L 246.652344 104.898438 C 246.738281 104.742188 246.898438 104.636719 247.085938 104.632813 C 247.1875 104.628906 247.28125 104.660156 247.359375 104.714844 "/>
<path style=" stroke:none;fill-rule:nonzero;fill:rgb(100%,100%,100%);fill-opacity:1;" d="M 303.917969 82.695313 C 303.640625 82.695313 303.410156 82.464844 303.410156 82.183594 C 303.410156 82.113281 303.425781 82.042969 303.453125 81.980469 L 308.457031 70.605469 L 299.671875 52.65625 C 299.640625 52.589844 299.621094 52.515625 299.621094 52.433594 C 299.621094 52.15625 299.851563 51.925781 300.132813 51.925781 L 307.027344 51.925781 C 307.234375 51.925781 307.410156 52.046875 307.492188 52.222656 L 312.105469 62.386719 L 316.589844 52.226563 C 316.667969 52.050781 316.847656 51.925781 317.050781 51.925781 L 323.367188 51.925781 C 323.648438 51.925781 323.875 52.15625 323.875 52.433594 C 323.875 52.507813 323.859375 52.578125 323.832031 52.640625 L 310.65625 82.390625 C 310.578125 82.570313 310.398438 82.695313 310.191406 82.695313 L 303.917969 82.695313 "/>
</g>
</svg>
